<svg xmlns="http://www.w3.org/2000/svg" version="1.1" xmlns:xlink="http://www.w3.org/1999/xlink" xmlns:svgjs="http://svgjs.dev/svgjs" width="1220" height="150" preserveAspectRatio="none" viewBox="0 0 1220 150"><g mask="url(&quot;#SvgjsMask1068&quot;)" fill="none"><rect width="1220" height="150" x="0" y="0" fill="rgba(123, 188, 254, 1)"></rect><path d="M0,215.99C51.372,225.135,105.638,260.463,151.992,236.504C197.984,212.732,202.036,149.146,221.856,101.318C240.912,55.333,271.554,11.226,265.839,-38.222C260.072,-88.126,228.477,-132.045,191.018,-165.518C156.142,-196.683,106.205,-197.997,64.145,-218.457C10.972,-244.323,-29.438,-303.655,-88.53,-301.506C-148.976,-299.308,-209.779,-260.17,-239.377,-207.421C-268.201,-156.05,-239.09,-93.189,-238.468,-34.287C-237.957,14.058,-258.674,65.073,-236.048,107.8C-213.696,150.01,-164.205,168.044,-120.785,187.945C-82.434,205.523,-41.534,208.596,0,215.99" fill="#3f9efe"></path><path d="M1220 651.3C1313.696 654.817 1357.958 532.1600000000001 1420.99 462.746 1467.906 411.08 1511.753 359.951 1541.774 296.949 1572.23 233.034 1594.976 166.77100000000002 1595.761 95.97399999999999 1596.644 16.313999999999993 1586.716-64.156 1546.542-132.95 1501.467-210.13600000000002 1442.533-290.678 1356.278-314.119 1270.295-337.486 1184.935-284.917 1101.397-253.925 1023.554-225.046 931.454-208.933 885.807-139.57999999999998 840.9739999999999-71.463 888.347 20.33699999999999 868.78 99.50200000000001 845.899 192.072 722.8779999999999 272.199 762.601 358.887 802.345 445.62 948.096 396.625 1028.479 448.013 1108.54 499.195 1125.044 647.736 1220 651.3" fill="#b7daff"></path></g><defs><mask id="SvgjsMask1068"><rect width="1220" height="150" fill="#ffffff"></rect></mask></defs></svg>